<svg id="svg" version="1.1" xmlns="http://www.w3.org/2000/svg" xmlns:xlink="http://www.w3.org/1999/xlink" width="400" height="400" viewBox="0, 0, 400,400"><g id="svgg"><path id="path0" d="M197.481 81.813 C 195.885 82.403,86.034 191.703,84.391 194.336 C 82.670 197.092,83.073 200.552,85.416 203.145 C 87.666 205.636,89.002 205.859,101.628 205.859 L 112.489 205.859 112.592 258.691 C 112.708 317.842,112.457 312.822,115.443 315.807 C 118.327 318.692,116.736 318.542,145.789 318.663 L 171.852 318.771 171.961 281.554 L 172.070 244.336 173.126 241.356 C 182.313 215.420,217.690 215.324,226.827 241.211 L 227.930 244.336 228.039 281.554 L 228.148 318.771 254.221 318.663 L 280.295 318.555 282.234 317.557 C 284.416 316.434,286.488 313.981,287.092 311.807 C 287.361 310.838,287.496 292.898,287.498 258.127 L 287.500 205.902 299.316 205.783 C 310.039 205.675,311.273 205.595,312.643 204.914 C 315.748 203.373,317.331 199.674,316.393 196.155 C 315.895 194.287,206.278 83.706,203.425 82.193 C 201.801 81.333,199.226 81.168,197.481 81.813 " stroke="none" fill="#c34304" fill-rule="evenodd"></path><path id="path1" d="M0.000 200.000 L 0.000 400.000 200.000 400.000 L 400.000 400.000 400.000 200.000 L 400.000 0.000 200.000 0.000 L 0.000 0.000 0.000 200.000 M202.611 81.658 C 204.068 82.199,315.047 193.096,316.042 195.004 C 317.411 197.631,316.938 201.108,314.917 203.272 C 312.621 205.730,311.937 205.841,299.121 205.851 L 287.500 205.859 287.491 258.691 C 287.482 318.482,287.781 313.155,284.259 316.255 C 281.359 318.807,282.061 318.750,253.777 318.750 L 228.151 318.750 228.024 281.934 C 227.907 248.096,227.841 244.928,227.206 242.773 C 220.440 219.817,190.863 214.550,177.091 233.849 C 171.840 241.208,171.875 240.877,171.875 283.237 L 171.875 318.750 145.996 318.741 C 121.795 318.733,120.016 318.687,118.555 318.021 C 116.166 316.932,114.435 315.272,113.425 313.102 L 112.508 311.133 112.504 258.496 L 112.500 205.859 101.053 205.859 L 89.607 205.859 87.550 204.835 C 83.762 202.947,82.118 198.540,83.916 195.088 C 84.878 193.240,195.815 82.247,197.266 81.681 C 198.579 81.168,201.261 81.157,202.611 81.658 " stroke="none" fill="#fbfbfb" fill-rule="evenodd"></path><path id="path2" d="" stroke="none" fill="#dc815c" fill-rule="evenodd"></path><path id="path3" d="" stroke="none" fill="#d0684c" fill-rule="evenodd"></path><path id="path4" d="" stroke="none" fill="#e4aa8a" fill-rule="evenodd"></path></g></svg>